<svg width="30" height="31" viewBox="0 0 30 31" fill="none" xmlns="http://www.w3.org/2000/svg">
<g clip-path="url(#clip0_1_2966)">
<path d="M28.5 17H1.5C1.10218 17 0.720645 16.8419 0.439339 16.5606C0.158035 16.2794 0 15.8978 0 15.5C0 15.1022 0.158035 14.7206 0.439339 14.4393C0.720645 14.158 1.10218 14 1.5 14H28.5C28.8978 14 29.2794 14.158 29.5606 14.4393C29.8419 14.7206 30 15.1022 30 15.5C30 15.8978 29.8419 16.2794 29.5606 16.5606C29.2794 16.8419 28.8978 17 28.5 17ZM28.5 6.5H1.5C1.10218 6.5 0.720645 6.34196 0.439339 6.06066C0.158035 5.77935 0 5.39783 0 5C0 4.60217 0.158035 4.22065 0.439339 3.93934C0.720645 3.65804 1.10218 3.5 1.5 3.5H28.5C28.8978 3.5 29.2794 3.65804 29.5606 3.93934C29.8419 4.22065 30 4.60217 30 5C30 5.39783 29.8419 5.77935 29.5606 6.06066C29.2794 6.34196 28.8978 6.5 28.5 6.5ZM28.5 27.5H1.5C1.10218 27.5 0.720645 27.3419 0.439339 27.0606C0.158035 26.7794 0 26.3978 0 26C0 25.6022 0.158035 25.2206 0.439339 24.9394C0.720645 24.6581 1.10218 24.5 1.5 24.5H28.5C28.8978 24.5 29.2794 24.6581 29.5606 24.9394C29.8419 25.2206 30 25.6022 30 26C30 26.3978 29.8419 26.7794 29.5606 27.0606C29.2794 27.3419 28.8978 27.5 28.5 27.5Z" fill="black"/>
</g>
<defs>
<clipPath id="clip0_1_2966">
<rect width="30" height="30" fill="white" transform="translate(0 0.5)"/>
</clipPath>
</defs>
</svg>
