<svg width="40" height="40" viewBox="0 0 40 40" fill="none" xmlns="http://www.w3.org/2000/svg">
<rect width="40" height="40" rx="4" fill="white"/>
<path d="M24.5417 28.9583C23.6 28.9583 22.6084 28.7333 21.5834 28.3C20.5834 27.875 19.575 27.2916 18.5917 26.5833C17.6167 25.8666 16.675 25.0666 15.7834 24.1916C14.9 23.3 14.1 22.3583 13.3917 21.3916C12.675 20.3916 12.1 19.3916 11.6917 18.425C11.2584 17.3916 11.0417 16.3916 11.0417 15.45C11.0417 14.8 11.1584 14.1833 11.3834 13.6083C11.6167 13.0166 11.9917 12.4666 12.5 11.9916C13.1417 11.3583 13.875 11.0416 14.6584 11.0416C14.9834 11.0416 15.3167 11.1166 15.6 11.25C15.925 11.4 16.2 11.625 16.4 11.925L18.3334 14.65C18.5084 14.8916 18.6417 15.125 18.7334 15.3583C18.8417 15.6083 18.9 15.8583 18.9 16.1C18.9 16.4166 18.8084 16.725 18.6334 17.0166C18.5084 17.2416 18.3167 17.4833 18.075 17.725L17.5084 18.3166C17.5167 18.3416 17.525 18.3583 17.5334 18.375C17.6334 18.55 17.8334 18.85 18.2167 19.3C18.625 19.7666 19.0084 20.1916 19.3917 20.5833C19.8834 21.0666 20.2917 21.45 20.675 21.7666C21.15 22.1666 21.4584 22.3666 21.6417 22.4583L21.625 22.5L22.2334 21.9C22.4917 21.6416 22.7417 21.45 22.9834 21.325C23.4417 21.0416 24.025 20.9916 24.6084 21.2333C24.825 21.325 25.0584 21.45 25.3084 21.625L28.075 23.5916C28.3834 23.8 28.6084 24.0666 28.7417 24.3833C28.8667 24.7 28.925 24.9916 28.925 25.2833C28.925 25.6833 28.8334 26.0833 28.6584 26.4583C28.4834 26.8333 28.2667 27.1583 27.9917 27.4583C27.5167 27.9833 27 28.3583 26.4 28.6C25.825 28.8333 25.2 28.9583 24.5417 28.9583ZM14.6584 12.2916C14.2 12.2916 13.775 12.4916 13.3667 12.8916C12.9834 13.25 12.7167 13.6416 12.55 14.0666C12.375 14.5 12.2917 14.9583 12.2917 15.45C12.2917 16.225 12.475 17.0666 12.8417 17.9333C13.2167 18.8166 13.7417 19.7333 14.4084 20.65C15.075 21.5666 15.8334 22.4583 16.6667 23.3C17.5 24.125 18.4 24.8916 19.325 25.5666C20.225 26.225 21.15 26.7583 22.0667 27.1416C23.4917 27.75 24.825 27.8916 25.925 27.4333C26.35 27.2583 26.725 26.9916 27.0667 26.6083C27.2584 26.4 27.4084 26.175 27.5334 25.9083C27.6334 25.7 27.6834 25.4833 27.6834 25.2666C27.6834 25.1333 27.6584 25 27.5917 24.85C27.5667 24.8 27.5167 24.7083 27.3584 24.6L24.5917 22.6333C24.425 22.5166 24.275 22.4333 24.1334 22.375C23.95 22.3 23.875 22.225 23.5917 22.4C23.425 22.4833 23.275 22.6083 23.1084 22.775L22.475 23.4C22.15 23.7166 21.65 23.7916 21.2667 23.65L21.0417 23.55C20.7 23.3666 20.3 23.0833 19.8584 22.7083C19.4584 22.3666 19.025 21.9666 18.5 21.45C18.0917 21.0333 17.6834 20.5916 17.2584 20.1C16.8667 19.6416 16.5834 19.25 16.4084 18.925L16.3084 18.675C16.2584 18.4833 16.2417 18.375 16.2417 18.2583C16.2417 17.9583 16.35 17.6916 16.5584 17.4833L17.1834 16.8333C17.35 16.6666 17.475 16.5083 17.5584 16.3666C17.625 16.2583 17.65 16.1666 17.65 16.0833C17.65 16.0166 17.625 15.9166 17.5834 15.8166C17.525 15.6833 17.4334 15.5333 17.3167 15.375L15.3834 12.6416C15.3 12.525 15.2 12.4416 15.075 12.3833C14.9417 12.325 14.8 12.2916 14.6584 12.2916ZM21.625 22.5083L21.4917 23.075L21.7167 22.4916C21.675 22.4833 21.6417 22.4916 21.625 22.5083Z" fill="#1A2630"/>
</svg>
