<svg width="40" height="40" viewBox="0 0 40 40" fill="none" xmlns="http://www.w3.org/2000/svg">
<rect width="40" height="40" rx="4" fill="white"/>
<path d="M24.1667 27.7083H15.8334C12.7917 27.7083 11.0417 25.9583 11.0417 22.9166V17.0833C11.0417 14.0416 12.7917 12.2916 15.8334 12.2916H24.1667C27.2084 12.2916 28.9584 14.0416 28.9584 17.0833V22.9166C28.9584 25.9583 27.2084 27.7083 24.1667 27.7083ZM15.8334 13.5416C13.45 13.5416 12.2917 14.7 12.2917 17.0833V22.9166C12.2917 25.3 13.45 26.4583 15.8334 26.4583H24.1667C26.55 26.4583 27.7084 25.3 27.7084 22.9166V17.0833C27.7084 14.7 26.55 13.5416 24.1667 13.5416H15.8334Z" fill="#1A2630"/>
<path d="M19.9998 20.725C19.2998 20.725 18.5915 20.5083 18.0498 20.0666L15.4415 17.9833C15.1748 17.7666 15.1248 17.375 15.3415 17.1083C15.5581 16.8416 15.9498 16.7916 16.2165 17.0083L18.8248 19.0916C19.4581 19.6 20.5331 19.6 21.1665 19.0916L23.7748 17.0083C24.0415 16.7916 24.4415 16.8333 24.6498 17.1083C24.8665 17.375 24.8248 17.775 24.5498 17.9833L21.9415 20.0666C21.4081 20.5083 20.6998 20.725 19.9998 20.725Z" fill="#1A2630"/>
</svg>
