<svg width="40" height="40" viewBox="0 0 40 40" fill="none" xmlns="http://www.w3.org/2000/svg">
<rect width="40" height="40" rx="4" fill="white"/>
<path d="M20 21.8084C18.225 21.8084 16.775 20.3667 16.775 18.5834C16.775 16.8 18.225 15.3667 20 15.3667C21.775 15.3667 23.225 16.8084 23.225 18.5917C23.225 20.375 21.775 21.8084 20 21.8084ZM20 16.6167C18.9167 16.6167 18.025 17.5 18.025 18.5917C18.025 19.6834 18.9084 20.5667 20 20.5667C21.0917 20.5667 21.975 19.6834 21.975 18.5917C21.975 17.5 21.0834 16.6167 20 16.6167Z" fill="#1A2630"/>
<path d="M20 28.9666C18.7667 28.9666 17.525 28.5 16.5584 27.575C14.1 25.2083 11.3834 21.4333 12.4084 16.9416C13.3334 12.8666 16.8917 11.0416 20 11.0416C20 11.0416 20 11.0416 20.0084 11.0416C23.1167 11.0416 26.675 12.8666 27.6 16.95C28.6167 21.4416 25.9 25.2083 23.4417 27.575C22.475 28.5 21.2334 28.9666 20 28.9666ZM20 12.2916C17.575 12.2916 14.4584 13.5833 13.6334 17.2166C12.7334 21.1416 15.2 24.525 17.4334 26.6666C18.875 28.0583 21.1334 28.0583 22.575 26.6666C24.8 24.525 27.2667 21.1416 26.3834 17.2166C25.55 13.5833 22.425 12.2916 20 12.2916Z" fill="#1A2630"/>
</svg>
